<?xml version="1.0" encoding="UTF-8" standalone="no"?>
<!-- Created with Inkscape (http://www.inkscape.org/) -->

<svg
   xmlns:dc="http://purl.org/dc/elements/1.1/"
   xmlns:cc="http://creativecommons.org/ns#"
   xmlns:rdf="http://www.w3.org/1999/02/22-rdf-syntax-ns#"
   xmlns:svg="http://www.w3.org/2000/svg"
   xmlns="http://www.w3.org/2000/svg"
   xmlns:sodipodi="http://sodipodi.sourceforge.net/DTD/sodipodi-0.dtd"
   xmlns:inkscape="http://www.inkscape.org/namespaces/inkscape"
   id="svg4439"
   version="1.1"
   inkscape:version="0.48.1 "
   width="271.25"
   height="288.75"
   xml:space="preserve"
   sodipodi:docname="Mole_2.pdf"><metadata
     id="metadata4445"><rdf:RDF><cc:Work
         rdf:about=""><dc:format>image/svg+xml</dc:format><dc:type
           rdf:resource="http://purl.org/dc/dcmitype/StillImage" /><dc:title></dc:title></cc:Work></rdf:RDF></metadata><defs
     id="defs4443"><clipPath
       clipPathUnits="userSpaceOnUse"
       id="clipPath4455"><path
         d="M 0,0 904,0 904,962 0,962 0,0 z"
         id="path4457" /></clipPath></defs><sodipodi:namedview
     pagecolor="#ffffff"
     bordercolor="#666666"
     borderopacity="1"
     objecttolerance="10"
     gridtolerance="10"
     guidetolerance="10"
     inkscape:pageopacity="0"
     inkscape:pageshadow="2"
     inkscape:window-width="640"
     inkscape:window-height="480"
     id="namedview4441"
     showgrid="false"
     inkscape:zoom="1.0077922"
     inkscape:cx="135.625"
     inkscape:cy="144.375"
     inkscape:window-x="459"
     inkscape:window-y="141"
     inkscape:window-maximized="0"
     inkscape:current-layer="g4447" /><g
     id="g4447"
     inkscape:groupmode="layer"
     inkscape:label="Mole_2"
     transform="matrix(1.25,0,0,-1.25,0,288.75)"><g
       id="g4449"
       transform="scale(0.24,0.24)"><g
         id="g4451"><g
           id="g4453"
           clip-path="url(#clipPath4455)"><path
             d="m 152.445,831.664 c 0,0 35.071,123.035 163.16,127.988 C 443.43,964.742 467.789,854.957 490.41,829.922 513.031,804.754 923.941,601.117 901.992,277.66 880.176,-45.9336 395.516,90.2227 371.688,223.301 347.863,356.379 369.277,397.75 334.211,500.57 299.008,603.395 156.598,704.742 156.73,691.758 c 0,25.168 -4.285,139.906 -4.285,139.906"
             style="fill:#231f20;fill-opacity:1;fill-rule:nonzero;stroke:none"
             id="path4459" /><path
             d="m 152.445,831.664 c 0,0 35.071,123.035 163.16,127.988 C 443.43,964.742 467.789,854.957 490.41,829.922 513.031,804.754 923.941,601.117 901.992,277.66 880.176,-45.9336 395.516,90.2227 371.688,223.301 347.863,356.379 369.277,397.75 334.211,500.57 299.008,603.395 156.598,704.742 156.73,691.758 c 0,25.168 -4.285,139.906 -4.285,139.906 z"
             style="fill:none;stroke:#231f20;stroke-opacity:1;stroke-width:0.9;stroke-linecap:butt;stroke-linejoin:miter;stroke-miterlimit:4;stroke-dasharray:none"
             id="path4461" /><path
             d="m 172.121,833.137 c 4.285,-6.563 -95.2968,-56.633 -131.1679,-46.86 -35.87107,9.907 -6.8281,-60.246 18.2032,-75.375 3.2109,-1.875 21.1484,-31.597 25.832,-33.336 32.5237,-11.648 104.5347,-13.793 137.5937,-15.933 51.266,6.558 -54.875,178.195 -50.461,171.504"
             style="fill:#231f20;fill-opacity:1;fill-rule:nonzero;stroke:none"
             id="path4463" /><path
             d="m 172.121,833.137 c 4.285,-6.563 -95.2968,-56.633 -131.1679,-46.86 -35.87107,9.907 -6.8281,-60.246 18.2032,-75.375 3.2109,-1.875 21.1484,-31.597 25.832,-33.336 32.5237,-11.648 104.5347,-13.793 137.5937,-15.933 51.266,6.558 -54.875,178.195 -50.461,171.504 z"
             style="fill:none;stroke:#231f20;stroke-opacity:1;stroke-width:0.9;stroke-linecap:butt;stroke-linejoin:miter;stroke-miterlimit:4;stroke-dasharray:none"
             id="path4465" /><path
             d="m 33.5898,817.473 c 0,0 -27.70699,-17.539 -15.125,-35.078 12.8516,-17.942 12.9844,-20.754 32.6602,-37.622 13.5195,-11.648 44.4375,64.801 -17.5352,72.7"
             style="fill:#231f20;fill-opacity:1;fill-rule:nonzero;stroke:none"
             id="path4467" /><path
             d="m 33.5898,817.473 c 0,0 -27.70699,-17.539 -15.125,-35.078 12.8516,-17.942 12.9844,-20.754 32.6602,-37.622 13.5195,-11.648 44.4375,64.801 -17.5352,72.7 z"
             style="fill:none;stroke:#231f20;stroke-opacity:1;stroke-width:0.9;stroke-linecap:butt;stroke-linejoin:miter;stroke-miterlimit:4;stroke-dasharray:none"
             id="path4469" /><path
             d="M 662.539,83.6641 C 653.57,57.957 688.773,12.0352 771.758,2.66406 854.742,-6.70703 874.555,31.1797 874.555,31.1797 c 0,0 -92.223,-11.6445 -92.223,60.5156 1.34,84.8827 -109.621,21.4217 -119.793,-8.0312"
             style="fill:#231f20;fill-opacity:1;fill-rule:nonzero;stroke:none"
             id="path4471" /><path
             d="M 662.539,83.6641 C 653.57,57.957 688.773,12.0352 771.758,2.66406 854.742,-6.70703 874.555,31.1797 874.555,31.1797 c 0,0 -92.223,-11.6445 -92.223,60.5156 1.34,84.8827 -109.621,21.4217 -119.793,-8.0312 z"
             style="fill:none;stroke:#231f20;stroke-opacity:1;stroke-width:0.9;stroke-linecap:butt;stroke-linejoin:miter;stroke-miterlimit:4;stroke-dasharray:none"
             id="path4473" /><path
             d="m 420.277,469.645 c -37.48,-53.418 -91.687,-24.231 -114.308,-61.184 -7.36,-12.051 -23.156,-35.344 -34.801,-31.598 -3.746,1.207 -19.406,22.094 -19.809,28.117 -2.14,31.598 5.223,39.899 -1.336,29.723 -12.718,-19.414 -27.574,-85.152 -22.621,-84.078 7.629,1.473 -72.679,14.324 -60.367,63.594 12.317,49.269 46.981,75.777 46.981,75.777 0,0 -50.594,-40.433 -56.485,-74.039 -5.754,-33.336 -13.652,-58.371 -20.746,-56.629 -7.094,1.738 -41.8944,61.586 -37.742,106.836 4.016,45.254 106.809,97.867 106.809,97.867 0,0 -65.317,-19.277 -85.93,-52.215 -20.6134,-32.933 -25.1642,64.532 3.613,93.454 28.778,28.781 86.332,16.332 127.559,20.484 48.183,4.816 310.258,44.445 169.183,-156.109"
             style="fill:#231f20;fill-opacity:1;fill-rule:nonzero;stroke:none"
             id="path4475" /><path
             d="m 420.277,469.645 c -37.48,-53.418 -91.687,-24.231 -114.308,-61.184 -7.36,-12.051 -23.156,-35.344 -34.801,-31.598 -3.746,1.207 -19.406,22.094 -19.809,28.117 -2.14,31.598 5.223,39.899 -1.336,29.723 -12.718,-19.414 -27.574,-85.152 -22.621,-84.078 7.629,1.473 -72.679,14.324 -60.367,63.594 12.317,49.269 46.981,75.777 46.981,75.777 0,0 -50.594,-40.433 -56.485,-74.039 -5.754,-33.336 -13.652,-58.371 -20.746,-56.629 -7.094,1.738 -41.8944,61.586 -37.742,106.836 4.016,45.254 106.809,97.867 106.809,97.867 0,0 -65.317,-19.277 -85.93,-52.215 -20.6134,-32.933 -25.1642,64.532 3.613,93.454 28.778,28.781 86.332,16.332 127.559,20.484 48.183,4.816 310.258,44.445 169.183,-156.109 z"
             style="fill:none;stroke:#231f20;stroke-opacity:1;stroke-width:0.9;stroke-linecap:butt;stroke-linejoin:miter;stroke-miterlimit:4;stroke-dasharray:none"
             id="path4477" /><path
             d="m 444.902,145.25 c 0,0 -163.023,21.555 -192.07,1.34 -29.043,-20.086 -36.941,-29.727 -33.73,-34.813 3.347,-4.953 65.718,3.481 76.964,-5.086 11.375,-8.5699 -72.949,11.247 -96.105,-20.6168 -23.289,-31.7304 70.004,-6.4297 104.402,-7.6328 34.399,-1.3398 -99.715,-17.4062 -104.402,-25.7031 -9.902,-17.0039 4.418,-21.1563 34.937,-11.1133 31.454,10.3086 83.254,-5.8906 110.692,-4.2852 44.035,2.543 104.265,28.25 192.336,2.543 87.937,-25.7031 94.898,21.5547 92.222,39.4961 C 627.336,97.3203 444.902,145.25 444.902,145.25"
             style="fill:#231f20;fill-opacity:1;fill-rule:nonzero;stroke:none"
             id="path4479" /><path
             d="m 444.902,145.25 c 0,0 -163.023,21.555 -192.07,1.34 -29.043,-20.086 -36.941,-29.727 -33.73,-34.813 3.347,-4.953 65.718,3.481 76.964,-5.086 11.375,-8.5699 -72.949,11.247 -96.105,-20.6168 -23.289,-31.7304 70.004,-6.4297 104.402,-7.6328 34.399,-1.3398 -99.715,-17.4062 -104.402,-25.7031 -9.902,-17.0039 4.418,-21.1563 34.937,-11.1133 31.454,10.3086 83.254,-5.8906 110.692,-4.2852 44.035,2.543 104.265,28.25 192.336,2.543 87.937,-25.7031 94.898,21.5547 92.222,39.4961 C 627.336,97.3203 444.902,145.25 444.902,145.25 z"
             style="fill:none;stroke:#231f20;stroke-opacity:1;stroke-width:0.9;stroke-linecap:butt;stroke-linejoin:miter;stroke-miterlimit:4;stroke-dasharray:none"
             id="path4481" /><path
             d="m 59.8242,868.078 c 3.3477,3.481 36.8086,-76.715 32.6602,-87.023"
             style="fill:none;stroke:#231f20;stroke-opacity:1;stroke-width:0.9;stroke-linecap:butt;stroke-linejoin:miter;stroke-miterlimit:4;stroke-dasharray:none"
             id="path4483" /><path
             d="m 172.391,827.781 c 0,0 32.39,113.797 150.711,118.352 C 441.289,950.816 485.461,827.781 506.34,804.617 527.219,781.457 900.652,605.668 886.734,294.258 872.813,-17.2852 409.031,99.3281 385.742,224.641 c -23.156,125.312 8.699,180.605 -23.824,275.664 -32.523,95.054 -164.098,188.64 -164.098,176.722 0,23.164 -25.429,150.754 -25.429,150.754"
             style="fill:#231f20;fill-opacity:1;fill-rule:nonzero;stroke:none"
             id="path4485" /><path
             d="m 172.391,827.781 c 0,0 32.39,113.797 150.711,118.352 C 441.289,950.816 485.461,827.781 506.34,804.617 527.219,781.457 900.652,605.668 886.734,294.258 872.813,-17.2852 409.031,99.3281 385.742,224.641 c -23.156,125.312 8.699,180.605 -23.824,275.664 -32.523,95.054 -164.098,188.64 -164.098,176.722 0,23.164 -25.429,150.754 -25.429,150.754 z"
             style="fill:none;stroke:#231f20;stroke-opacity:1;stroke-width:0.9;stroke-linecap:butt;stroke-linejoin:miter;stroke-miterlimit:4;stroke-dasharray:none"
             id="path4487" /><path
             d="m 176.941,823.898 c 0,0 31.586,110.454 146.43,115.004 C 438.211,943.32 481.043,823.898 501.254,801.406 521.598,778.777 884.324,608.215 870.805,305.641 857.285,3.06641 412.914,114.055 390.426,235.754 c -22.485,121.699 5.09,179.133 -26.5,271.512 -31.59,92.246 -162.223,181.812 -162.223,170.164 0,22.492 -24.762,146.468 -24.762,146.468"
             style="fill:#312d2f;fill-opacity:1;fill-rule:nonzero;stroke:none"
             id="path4489" /><path
             d="m 181.492,820.016 c 0,0 30.653,107.105 142.145,111.523 C 435,935.957 476.625,820.016 496.301,798.191 515.977,776.234 867.859,610.621 854.742,317.152 841.625,23.5508 416.93,128.648 394.977,246.73 c -21.817,118.086 1.609,177.93 -29.043,267.497 -30.653,89.57 -160.348,174.984 -160.348,163.605 0,21.957 -24.094,142.184 -24.094,142.184"
             style="fill:#423e40;fill-opacity:1;fill-rule:nonzero;stroke:none"
             id="path4491" /><path
             d="m 186.176,816.133 c 0,0 29.582,103.89 137.73,108.043 108.016,4.285 148.301,-108.043 167.309,-129.332 19.14,-21.153 360.316,-181.676 347.601,-466.309 -12.714,-284.6366 -418.14,-185.16 -439.152,-70.691 -21.148,114.469 -2.141,176.457 -31.723,263.347 -29.714,86.754 -158.476,168.02 -158.476,157.043 0,21.286 -23.289,137.899 -23.289,137.899"
             style="fill:#4f4b4f;fill-opacity:1;fill-rule:nonzero;stroke:none"
             id="path4493" /><path
             d="m 190.727,812.25 c 0,0 28.777,100.547 133.445,104.695 C 428.707,920.961 467.789,812.25 486.262,791.633 504.734,771.148 835.203,615.578 822.887,340.047 810.574,64.3828 424.691,158.102 404.348,268.957 383.734,379.809 398.594,443.941 369.949,528.02 341.172,612.23 213.348,689.348 213.348,678.77 c 0,20.484 -22.621,133.48 -22.621,133.48"
             style="fill:#5c585d;fill-opacity:1;fill-rule:nonzero;stroke:none"
             id="path4495" /><path
             d="m 195.277,808.234 c 0,0 27.84,97.332 129.164,101.348 C 425.629,913.598 463.375,808.234 481.176,788.418 499.109,768.605 818.871,618.121 806.961,351.426 795.047,84.7344 428.707,172.695 408.898,279.934 389.09,387.309 399.664,453.715 371.824,534.98 c -27.707,81.399 -154.73,154.5 -154.73,144.192 0,19.812 -21.817,129.062 -21.817,129.062"
             style="fill:#69646b;fill-opacity:1;fill-rule:nonzero;stroke:none"
             id="path4497" /><path
             d="m 199.961,804.352 c 0,0 26.769,94.117 124.746,98 97.711,3.75 134.25,-98 151.516,-117.145 C 493.488,765.926 802.41,620.531 790.898,362.941 779.387,105.082 432.59,187.422 413.582,291.047 394.309,394.805 400.734,463.352 373.832,541.941 347.063,620.531 220.977,689.48 220.977,679.57 c 0,19.149 -21.016,124.782 -21.016,124.782"
             style="fill:#77727b;fill-opacity:1;fill-rule:nonzero;stroke:none"
             id="path4499" /><path
             d="m 204.512,800.469 c 0,0 25.968,90.769 120.465,94.519 94.363,3.75 129.429,-94.519 146.16,-112.996 16.73,-18.609 314.941,-158.918 303.836,-407.672 -11.11,-248.754 -338.368,-172.304 -356.84,-72.16 -18.469,99.875 -16.328,170.832 -42.293,246.742 -25.969,75.914 -150.981,140.711 -150.981,131.071 0,18.609 -20.347,120.496 -20.347,120.496"
             style="fill:#827d89;fill-opacity:1;fill-rule:nonzero;stroke:none"
             id="path4501" /><path
             d="m 209.063,796.586 c 0,0 25.031,87.559 116.046,91.039 91.149,3.613 124.879,-91.039 141.075,-108.98 C 482.246,760.84 769.75,625.484 759.043,385.836 748.336,145.918 440.484,216.742 422.684,313.27 c -17.668,96.261 -19.809,169.363 -44.836,242.593 -25.032,73.102 -149.11,133.75 -149.11,124.649 0,17.804 -19.675,116.074 -19.675,116.074"
             style="fill:#8d8696;fill-opacity:1;fill-rule:nonzero;stroke:none"
             id="path4503" /><path
             d="m 309.852,635.258 c 0,0 -3.747,88.762 60.902,70.957 64.512,-17.672 121.531,-85.149 110.019,-145.531 -11.375,-60.379 0,-103.086 -49.39,-99.473 -49.254,3.48 -121.531,174.047 -121.531,174.047"
             style="fill:#d4c9c1;fill-opacity:1;fill-rule:nonzero;stroke:none"
             id="path4505" /><path
             d="m 309.852,635.258 c 0,0 -3.747,88.762 60.902,70.957 64.512,-17.672 121.531,-85.149 110.019,-145.531 -11.375,-60.379 0,-103.086 -49.39,-99.473 -49.254,3.48 -121.531,174.047 -121.531,174.047 z"
             style="fill:none;stroke:#231f20;stroke-opacity:1;stroke-width:8.1;stroke-linecap:butt;stroke-linejoin:miter;stroke-miterlimit:4;stroke-dasharray:none"
             id="path4507" /><path
             d="m 179.484,819.211 c 0,0 -90.4801,-39.496 -116.0465,-41.77 -25.4297,-2.277 -11.5078,-46.457 11.6445,-60.382 23.1563,-13.922 118.32,-32.399 153.121,-34.809 47.383,6.16 -42.562,141.113 -48.719,136.961"
             style="fill:#ece1da;fill-opacity:1;fill-rule:nonzero;stroke:none"
             id="path4509" /><path
             d="m 179.484,819.211 c 0,0 -90.4801,-39.496 -116.0465,-41.77 -25.4297,-2.277 -11.5078,-46.457 11.6445,-60.382 23.1563,-13.922 118.32,-32.399 153.121,-34.809 47.383,6.16 -42.562,141.113 -48.719,136.961 z"
             style="fill:none;stroke:#231f20;stroke-opacity:1;stroke-width:8.1;stroke-linecap:butt;stroke-linejoin:miter;stroke-miterlimit:4;stroke-dasharray:none"
             id="path4511" /><path
             d="m 173.863,797.254 c 0,0 -74.2849,-24.367 -95.1677,-25.84 -21.0117,-1.473 -9.6367,-28.785 9.5039,-37.484 19.0078,-8.571 97.1758,-20.082 125.6838,-21.555 38.949,3.746 -34.934,87.426 -40.02,84.879"
             style="fill:#feefe9;fill-opacity:1;fill-rule:nonzero;stroke:none"
             id="path4513" /><path
             d="m 44.9688,798.324 c 0,0 -25.5665,-16.199 -13.9219,-32.531 11.5117,-16.199 18.4726,-13.926 18.4726,-13.926 l 11.6446,-20.883 c 0,0 16.1953,6.961 6.9609,20.883 21.8164,2.278 -4.5508,41.774 -23.1562,46.457"
             style="fill:#3d3a3b;fill-opacity:1;fill-rule:nonzero;stroke:none"
             id="path4515" /><path
             d="m 44.9688,798.324 c 0,0 -25.5665,-16.199 -13.9219,-32.531 11.5117,-16.199 18.4726,-13.926 18.4726,-13.926 l 11.6446,-20.883 c 0,0 16.1953,6.961 6.9609,20.883 21.8164,2.278 -4.5508,41.774 -23.1562,46.457 z"
             style="fill:none;stroke:#231f20;stroke-opacity:1;stroke-width:0.9;stroke-linecap:butt;stroke-linejoin:miter;stroke-miterlimit:4;stroke-dasharray:none"
             id="path4517" /><path
             d="m 235.164,791.363 c 0,0 0,34.809 23.156,18.61 23.289,-16.332 20.879,-48.731 20.879,-48.731 -20.879,-8.57 -35.601,1.473 -44.035,30.121"
             style="fill:#efebf7;fill-opacity:1;fill-rule:nonzero;stroke:none"
             id="path4519" /><path
             d="m 235.164,791.363 c 0,0 0,34.809 23.156,18.61 23.289,-16.332 20.879,-48.731 20.879,-48.731 -20.879,-8.57 -35.601,1.473 -44.035,30.121 z"
             style="fill:none;stroke:#231f20;stroke-opacity:1;stroke-width:8.1;stroke-linecap:butt;stroke-linejoin:miter;stroke-miterlimit:4;stroke-dasharray:none"
             id="path4521" /><path
             d="m 259.523,803.012 c 9.641,0 17.403,-9.371 17.403,-20.887 0,-11.512 -7.762,-20.883 -17.403,-20.883 -9.5,0 -17.265,9.371 -17.265,20.883 0,11.516 7.765,20.887 17.265,20.887"
             style="fill:#231f20;fill-opacity:1;fill-rule:nonzero;stroke:none"
             id="path4523" /><path
             d="m 259.523,803.012 c 9.641,0 17.403,-9.371 17.403,-20.887 0,-11.512 -7.762,-20.883 -17.403,-20.883 -9.5,0 -17.265,9.371 -17.265,20.883 0,11.516 7.765,20.887 17.265,20.887 z"
             style="fill:none;stroke:#231f20;stroke-opacity:1;stroke-width:0.9;stroke-linecap:butt;stroke-linejoin:miter;stroke-miterlimit:4;stroke-dasharray:none"
             id="path4525" /><path
             d="m 257.25,805.824 c 2.41,0 4.418,-5.222 4.418,-11.648 0,-6.293 -2.008,-11.516 -4.418,-11.516 -2.543,0 -4.551,5.223 -4.551,11.516 0,6.426 2.008,11.648 4.551,11.648"
             style="fill:#ffffff;fill-opacity:1;fill-rule:nonzero;stroke:none"
             id="path4527" /><path
             d="m 669.363,69.8711 c -6.156,-8.5664 19.813,-42.4375 96.641,-49.4023 76.695,-6.961 95.031,3.75 95.031,3.75 0,0 -87.535,0 -87.535,53.2851 1.336,62.6561 -90.484,11.7813 -104.137,-7.6328"
             style="fill:#473f52;fill-opacity:1;fill-rule:nonzero;stroke:none"
             id="path4529" /><path
             d="m 669.363,69.8711 c -6.156,-8.5664 19.813,-42.4375 96.641,-49.4023 76.695,-6.961 95.031,3.75 95.031,3.75 0,0 -87.535,0 -87.535,53.2851 1.336,62.6561 -90.484,11.7813 -104.137,-7.6328 z"
             style="fill:none;stroke:#231f20;stroke-opacity:1;stroke-width:0.9;stroke-linecap:butt;stroke-linejoin:miter;stroke-miterlimit:4;stroke-dasharray:none"
             id="path4531" /><path
             d="m 679.402,70.2734 c -4.148,-4.8203 19.411,-34.1406 82.184,-43.2421 62.773,-8.9688 82.852,-4.6875 87.937,-2.4102 0,0 -80.976,3.6133 -80.976,51.9453 2.406,59.1756 -77.633,12.8516 -89.145,-6.293"
             style="fill:#5c5262;fill-opacity:1;fill-rule:nonzero;stroke:none"
             id="path4533" /><path
             d="m 689.441,70.543 c -2.14,-0.8047 19.008,-25.7071 67.727,-36.8164 48.855,-11.25 70.672,-13.2578 80.98,-8.7032 0,0 -74.687,7.0938 -74.687,50.7422 3.48,55.5584 -64.648,13.7891 -74.02,-5.2226"
             style="fill:#746974;fill-opacity:1;fill-rule:nonzero;stroke:none"
             id="path4535" /><path
             d="m 699.48,70.8086 c -0.132,3.2148 18.606,-17.2695 53.407,-30.5234 34.801,-13.2539 58.492,-21.8243 73.883,-14.8594 0,0 -68.395,10.5742 -68.395,49.4023 4.684,51.9449 -51.801,14.8594 -58.895,-4.0195"
             style="fill:#928589;fill-opacity:1;fill-rule:nonzero;stroke:none"
             id="path4537" /><path
             d="m 709.52,71.2109 c 3.882,14.0586 64.781,-63.85934 105.738,-45.3867 0,0 -61.969,14.1914 -61.969,48.1992 5.754,48.3316 -38.816,15.6641 -43.769,-2.8125"
             style="fill:#b5a096;fill-opacity:1;fill-rule:nonzero;stroke:none"
             id="path4539" /><path
             d="m 351.746,666.719 c 22.754,34.273 131.57,-83.676 87.266,-144.457 -44.168,-60.785 -56.883,-72.297 -132.907,-60.785 -76.027,11.382 -83.656,-75.911 -83.656,-75.911 0,0 -57.019,-7.628 -45.64,37.891 11.507,45.52 45.64,72.16 45.64,72.16 0,0 -53.269,-22.758 -60.765,-53.148 -7.629,-30.528 -15.262,-68.414 -15.262,-68.414 0,0 -41.758,56.898 -38.012,98.804 3.75,41.77 106.41,91.172 106.41,91.172 0,0 -60.765,0 -79.773,-30.39 -19.008,-30.391 -22.887,41.906 3.75,68.414 26.633,26.64 79.906,15.261 117.918,19.011 38.012,3.883 95.031,45.653 95.031,45.653"
             style="fill:#967e71;fill-opacity:1;fill-rule:nonzero;stroke:none"
             id="path4541" /><path
             d="m 351.746,666.719 c 22.754,34.273 131.57,-83.676 87.266,-144.457 -44.168,-60.785 -56.883,-72.297 -132.907,-60.785 -76.027,11.382 -83.656,-75.911 -83.656,-75.911 0,0 -57.019,-7.628 -45.64,37.891 11.507,45.52 45.64,72.16 45.64,72.16 0,0 -53.269,-22.758 -60.765,-53.148 -7.629,-30.528 -15.262,-68.414 -15.262,-68.414 0,0 -41.758,56.898 -38.012,98.804 3.75,41.77 106.41,91.172 106.41,91.172 0,0 -60.765,0 -79.773,-30.39 -19.008,-30.391 -22.887,41.906 3.75,68.414 26.633,26.64 79.906,15.261 117.918,19.011 38.012,3.883 95.031,45.653 95.031,45.653 z"
             style="fill:none;stroke:#231f20;stroke-opacity:1;stroke-width:8.1;stroke-linecap:butt;stroke-linejoin:miter;stroke-miterlimit:4;stroke-dasharray:none"
             id="path4543" /><path
             d="m 347.996,657.348 c 23.293,33.07 130.234,-76.446 87.004,-134.953 -43.102,-58.641 -56.082,-68.95 -129.297,-57.973 -73.215,10.98 -83.789,-73.098 -83.789,-73.098 0,0 -50.328,-8.035 -39.351,35.879 10.976,43.914 43.902,69.488 43.902,69.488 0,0 -57.555,-19.011 -64.918,-48.332 -7.359,-29.32 -15.125,-63.058 -15.125,-63.058 0,0 -35.734,51.14 -31.988,91.441 3.613,40.297 104.668,85.817 104.668,85.817 0,0 -63.039,5.492 -81.379,-23.832 -18.336,-29.317 -20.614,36.687 5.086,62.257 25.566,25.704 80.043,12.852 116.582,16.602 36.675,3.613 88.605,39.762 88.605,39.762"
             style="fill:#9e877a;fill-opacity:1;fill-rule:nonzero;stroke:none"
             id="path4545" /><path
             d="m 344.25,648.109 c 23.957,31.598 128.762,-69.351 86.734,-125.714 -42.031,-56.364 -55.414,-65.469 -125.816,-54.891 -70.406,10.441 -83.789,-70.289 -83.789,-70.289 0,0 -43.77,-8.434 -33.195,33.605 10.574,42.305 42.296,66.942 42.296,66.942 0,0 -61.972,-15.266 -69.066,-43.379 -6.961,-28.117 -14.992,-57.836 -14.992,-57.836 0,0 -29.578,45.387 -26.098,84.211 3.481,38.691 103.063,80.328 103.063,80.328 0,0 -65.321,10.98 -82.985,-17.27 -17.535,-28.117 -18.339,31.461 6.289,56.098 24.629,24.766 80.309,10.574 115.512,14.055 35.199,3.48 82.047,34.14 82.047,34.14"
             style="fill:#a79285;fill-opacity:1;fill-rule:nonzero;stroke:none"
             id="path4547" /><path
             d="m 340.504,638.738 c 24.492,30.391 127.422,-62.121 86.465,-116.211 -40.824,-54.086 -54.61,-62.254 -122.203,-52.078 -67.594,10.176 -83.922,-67.609 -83.922,-67.609 0,0 -37.078,-8.703 -26.903,31.726 10.172,40.567 40.555,64.266 40.555,64.266 0,0 -66.391,-11.516 -73.082,-38.426 -6.824,-27.043 -14.855,-52.746 -14.855,-52.746 0,0 -23.692,39.895 -20.211,76.981 3.343,37.218 101.32,74.972 101.32,74.972 0,0 -67.59,16.336 -84.457,-10.711 -16.996,-27.043 -16.195,26.375 7.363,49.938 23.692,23.699 80.574,8.168 114.305,11.515 33.73,3.348 75.625,28.383 75.625,28.383"
             style="fill:#b09c90;fill-opacity:1;fill-rule:nonzero;stroke:none"
             id="path4549" /><path
             d="m 336.754,629.367 c 25.031,29.188 125.949,-55.027 86.199,-106.84 -39.754,-51.812 -53.941,-58.773 -118.723,-49 -64.781,9.641 -83.921,-64.797 -83.921,-64.797 0,0 -30.383,-9.238 -20.746,29.586 9.769,38.961 38.949,61.586 38.949,61.586 0,0 -70.672,-7.629 -77.231,-33.605 -6.426,-25.836 -14.722,-47.395 -14.722,-47.395 0,0 -17.536,34.141 -14.325,69.754 3.215,35.614 99.719,69.485 99.719,69.485 0,0 -69.871,21.824 -86.066,-4.149 -16.196,-25.84 -14.051,21.153 8.703,43.778 22.617,22.761 80.574,5.757 112.965,8.968 32.39,3.215 69.199,22.629 69.199,22.629"
             style="fill:#bcaa9f;fill-opacity:1;fill-rule:nonzero;stroke:none"
             id="path4551" /><path
             d="m 235.836,842.508 c 0,0 41.891,4.148 46.977,-17.406 5.085,-21.555 -9.235,36.82 -28.641,42.976 -19.41,6.16 -18.336,-25.57 -18.336,-25.57"
             style="fill:#231f20;fill-opacity:1;fill-rule:nonzero;stroke:none"
             id="path4553" /><path
             d="m 235.836,842.508 c 0,0 41.891,4.148 46.977,-17.406 5.085,-21.555 -9.235,36.82 -28.641,42.976 -19.41,6.16 -18.336,-25.57 -18.336,-25.57 z"
             style="fill:none;stroke:#231f20;stroke-opacity:1;stroke-width:0.9;stroke-linecap:butt;stroke-linejoin:miter;stroke-miterlimit:4;stroke-dasharray:none"
             id="path4555" /><path
             d="M 81.2383,713.578 80.168,690.953 c 0,0 15.3945,5.219 23.559,-2.945 8.164,-8.301 94.226,-16.469 110.558,-16.469 16.328,0 32.258,-0.535 41.895,18.477 9.769,18.879 2.273,45.519 -18.34,47.125 25.969,-23.965 -111.36,-43.375 -156.6017,-23.563"
             style="fill:#feefe9;fill-opacity:1;fill-rule:nonzero;stroke:none"
             id="path4557" /><path
             d="M 81.2383,713.578 80.168,690.953 c 0,0 15.3945,5.219 23.559,-2.945 8.164,-8.301 94.226,-16.469 110.558,-16.469 16.328,0 32.258,-0.535 41.895,18.477 9.769,18.879 2.273,45.519 -18.34,47.125 25.969,-23.965 -111.36,-43.375 -156.6017,-23.563 z"
             style="fill:none;stroke:#231f20;stroke-opacity:1;stroke-width:8.1;stroke-linecap:butt;stroke-linejoin:miter;stroke-miterlimit:4;stroke-dasharray:none"
             id="path4559" /><path
             d="m 118.719,702.602 c -18.34,-2.145 16.328,-13.657 39.886,-9.641 23.555,4.016 75.754,16.469 65.583,17.941 -10.305,-5.089 -98.512,-7.363 -105.469,-8.3"
             style="fill:#863b22;fill-opacity:1;fill-rule:nonzero;stroke:none"
             id="path4561" /><path
             d="m 118.719,702.602 c -18.34,-2.145 16.328,-13.657 39.886,-9.641 23.555,4.016 75.754,16.469 65.583,17.941 -10.305,-5.089 -98.512,-7.363 -105.469,-8.3 z"
             style="fill:none;stroke:#231f20;stroke-opacity:1;stroke-width:8.1;stroke-linecap:butt;stroke-linejoin:miter;stroke-miterlimit:4;stroke-dasharray:none"
             id="path4563" /><path
             d="m 236.77,749.324 c 0,0 38.949,-5.086 38.949,-24.5 0,-19.414 -7.227,-33.871 -7.227,-33.871 0,0 9.235,16.469 12.317,32.801 3.074,16.332 -44.039,25.57 -44.039,25.57"
             style="fill:#231f20;fill-opacity:1;fill-rule:nonzero;stroke:none"
             id="path4565" /><path
             d="m 236.77,749.324 c 0,0 38.949,-5.086 38.949,-24.5 0,-19.414 -7.227,-33.871 -7.227,-33.871 0,0 9.235,16.469 12.317,32.801 3.074,16.332 -44.039,25.57 -44.039,25.57 z"
             style="fill:none;stroke:#231f20;stroke-opacity:1;stroke-width:0.9;stroke-linecap:butt;stroke-linejoin:miter;stroke-miterlimit:4;stroke-dasharray:none"
             id="path4567" /><path
             d="m 233.691,810.777 c 0,0 3.079,20.485 13.387,13.254 10.172,-7.097 32.656,-42.976 32.656,-42.976 0,0 -3.078,20.484 -11.242,34.808 -8.164,14.328 -24.492,20.485 -31.722,12.321 -7.094,-8.168 -3.079,-17.407 -3.079,-17.407"
             style="fill:#bbbaba;fill-opacity:1;fill-rule:nonzero;stroke:none"
             id="path4569" /><path
             d="m 233.691,810.777 c 0,0 3.079,20.485 13.387,13.254 10.172,-7.097 32.656,-42.976 32.656,-42.976 0,0 -3.078,20.484 -11.242,34.808 -8.164,14.328 -24.492,20.485 -31.722,12.321 -7.094,-8.168 -3.079,-17.407 -3.079,-17.407 z"
             style="fill:none;stroke:#231f20;stroke-opacity:1;stroke-width:0.9;stroke-linecap:butt;stroke-linejoin:miter;stroke-miterlimit:4;stroke-dasharray:none"
             id="path4571" /><path
             d="m 109.883,748.387 c 0,0 64.515,-115.672 64.515,-145.395"
             style="fill:none;stroke:#231f20;stroke-opacity:1;stroke-width:0.9;stroke-linecap:butt;stroke-linejoin:miter;stroke-miterlimit:4;stroke-dasharray:none"
             id="path4573" /><path
             d="m 219.371,589.738 c 0,0 -56.215,130.938 -75.758,139.102 -19.41,8.301 75.758,-78.723 78.836,-95.188"
             style="fill:none;stroke:#231f20;stroke-opacity:1;stroke-width:0.9;stroke-linecap:butt;stroke-linejoin:miter;stroke-miterlimit:4;stroke-dasharray:none"
             id="path4575" /><path
             d="m 3.47266,872.23 c 0,0 84.99614,-79.929 84.99614,-88.097 0,-8.164 -15.3946,50.207 -29.7149,64.531"
             style="fill:none;stroke:#231f20;stroke-opacity:1;stroke-width:0.9;stroke-linecap:butt;stroke-linejoin:miter;stroke-miterlimit:4;stroke-dasharray:none"
             id="path4577" /><path
             d="m 5.48047,839.426 c 0,0 72.67973,-49.133 72.67973,-58.371 0,-9.239 -33.7266,34.808 -59.293,31.73"
             style="fill:none;stroke:#231f20;stroke-opacity:1;stroke-width:0.9;stroke-linecap:butt;stroke-linejoin:miter;stroke-miterlimit:4;stroke-dasharray:none"
             id="path4579" /><path
             d="m 153.918,578.492 c 0,0 -13.25,149.41 -19.406,159.586 -6.157,10.309 39.886,-77.785 39.886,-93.18"
             style="fill:none;stroke:#231f20;stroke-opacity:1;stroke-width:0.9;stroke-linecap:butt;stroke-linejoin:miter;stroke-miterlimit:4;stroke-dasharray:none"
             id="path4581" /><path
             d="m 143.613,745.309 c 0,0 86.063,-71.625 90.078,-94.254"
             style="fill:none;stroke:#231f20;stroke-opacity:1;stroke-width:0.9;stroke-linecap:butt;stroke-linejoin:miter;stroke-miterlimit:4;stroke-dasharray:none"
             id="path4583" /><path
             d="m 107.875,729.91 c 0,0 8.164,-53.281 2.008,-69.617"
             style="fill:none;stroke:#231f20;stroke-opacity:1;stroke-width:0.9;stroke-linecap:butt;stroke-linejoin:miter;stroke-miterlimit:4;stroke-dasharray:none"
             id="path4585" /><path
             d="m 410.773,483.301 c 0,0 -70.671,-49.133 -91.152,-49.133 -20.344,0 -24.492,-22.629 -25.562,-34.813 -0.938,-12.183 -43.903,-8.164 -41.895,15.266 2.008,23.563 4.016,46.055 35.734,49.133 66.122,-4.684 166.375,117.949 122.875,19.547"
             style="fill:#967e71;fill-opacity:1;fill-rule:nonzero;stroke:none"
             id="path4587" /><path
             d="m 410.773,483.301 c 0,0 -70.671,-49.133 -91.152,-49.133 -20.344,0 -24.492,-22.629 -25.562,-34.813 -0.938,-12.183 -43.903,-8.164 -41.895,15.266 2.008,23.563 4.016,46.055 35.734,49.133 66.122,-4.684 166.375,117.949 122.875,19.547 z"
             style="fill:none;stroke:#231f20;stroke-opacity:1;stroke-width:0.9;stroke-linecap:butt;stroke-linejoin:miter;stroke-miterlimit:4;stroke-dasharray:none"
             id="path4589" /><path
             d="m 350.406,626.555 c 16.196,14.191 82.985,-43.512 70.403,-69.617 -12.313,-26.11 -0.801,-44.719 -16.196,-55.293 -15.39,-10.579 -62.371,-31.868 -56.347,5.085 6.156,36.954 6.156,33.872 -19.407,64.532 -25.566,30.66 21.547,55.293 21.547,55.293"
             style="fill:#aa9f92;fill-opacity:1;fill-rule:nonzero;stroke:none"
             id="path4591" /><path
             d="m 350.406,626.555 c 16.196,14.191 82.985,-43.512 70.403,-69.617 -12.313,-26.11 -0.801,-44.719 -16.196,-55.293 -15.39,-10.579 -62.371,-31.868 -56.347,5.085 6.156,36.954 6.156,33.872 -19.407,64.532 -25.566,30.66 21.547,55.293 21.547,55.293 z"
             style="fill:none;stroke:#231f20;stroke-opacity:1;stroke-width:0.9;stroke-linecap:butt;stroke-linejoin:miter;stroke-miterlimit:4;stroke-dasharray:none"
             id="path4593" /><path
             d="m 121.125,568.184 c 0,0 -22.4844,-38.829 -14.32,-58.375 8.164,-19.411 5.086,-9.102 8.164,4.152 3.078,13.254 8.301,30.66 20.48,36.816 12.313,6.161 -14.324,17.407 -14.324,17.407"
             style="fill:#adacb6;fill-opacity:1;fill-rule:nonzero;stroke:none"
             id="path4595" /><path
             d="m 121.125,568.184 c 0,0 -22.4844,-38.829 -14.32,-58.375 8.164,-19.411 5.086,-9.102 8.164,4.152 3.078,13.254 8.301,30.66 20.48,36.816 12.313,6.161 -14.324,17.407 -14.324,17.407 z"
             style="fill:none;stroke:#231f20;stroke-opacity:1;stroke-width:0.9;stroke-linecap:butt;stroke-linejoin:miter;stroke-miterlimit:4;stroke-dasharray:none"
             id="path4597" /><path
             d="m 118.316,558.676 c 0,0 -13.117,-28.25 -11.109,-42.442 2.008,-14.187 1.473,-6.691 3.883,2.946 2.543,9.777 6.156,22.359 12.043,26.91 5.89,4.422 -4.817,12.586 -4.817,12.586"
             style="fill:#efebf7;fill-opacity:1;fill-rule:nonzero;stroke:none"
             id="path4599" /><path
             d="m 130.363,424.93 c 0,0 -11.242,-45.922 14.321,-66.407 25.566,-20.484 12.312,-5.089 9.234,5.086 -3.078,10.309 -16.328,22.493 -7.227,41.907 9.235,19.414 -16.328,19.414 -16.328,19.414"
             style="fill:#adacb6;fill-opacity:1;fill-rule:nonzero;stroke:none"
             id="path4601" /><path
             d="m 130.363,424.93 c 0,0 -11.242,-45.922 14.321,-66.407 25.566,-20.484 12.312,-5.089 9.234,5.086 -3.078,10.309 -16.328,22.493 -7.227,41.907 9.235,19.414 -16.328,19.414 -16.328,19.414 z"
             style="fill:none;stroke:#231f20;stroke-opacity:1;stroke-width:0.9;stroke-linecap:butt;stroke-linejoin:miter;stroke-miterlimit:4;stroke-dasharray:none"
             id="path4603" /><path
             d="m 132.234,413.949 c 0,0 -7.226,-33.336 9.239,-48.332 16.593,-14.859 8.031,-3.746 6.023,3.75 -2.008,7.496 -10.574,16.469 -4.687,30.391 6.023,14.191 -10.575,14.191 -10.575,14.191"
             style="fill:#efebf7;fill-opacity:1;fill-rule:nonzero;stroke:none"
             id="path4605" /><path
             d="m 184.57,406.453 c 0,0 15.391,-51.008 31.723,-52.082 16.461,-0.937 10.305,6.16 2.141,14.328 -8.297,8.164 -14.321,11.246 -9.235,29.586 5.086,18.477 -24.629,8.168 -24.629,8.168"
             style="fill:#adacb6;fill-opacity:1;fill-rule:nonzero;stroke:none"
             id="path4607" /><path
             d="m 184.57,406.453 c 0,0 15.391,-51.008 31.723,-52.082 16.461,-0.937 10.305,6.16 2.141,14.328 -8.297,8.164 -14.321,11.246 -9.235,29.586 5.086,18.477 -24.629,8.168 -24.629,8.168 z"
             style="fill:none;stroke:#231f20;stroke-opacity:1;stroke-width:0.9;stroke-linecap:butt;stroke-linejoin:miter;stroke-miterlimit:4;stroke-dasharray:none"
             id="path4609" /><path
             d="m 188.586,401.766 c 0,0 10.977,-37.082 19.543,-37.754 8.43,-0.801 4.816,4.418 0.133,10.308 -4.684,6.028 -8.032,8.301 -6.426,21.688 1.473,13.258 -13.25,5.758 -13.25,5.758"
             style="fill:#efebf7;fill-opacity:1;fill-rule:nonzero;stroke:none"
             id="path4611" /><path
             d="m 260.328,407.523 c 0,0 6.156,-35.746 22.485,-40.832 16.464,-5.089 8.167,4.149 1.07,12.317 -7.227,8.164 -2.004,12.183 -1.07,23.43 1.07,11.246 -22.485,5.085 -22.485,5.085"
             style="fill:#adacb6;fill-opacity:1;fill-rule:nonzero;stroke:none"
             id="path4613" /><path
             d="m 260.328,407.523 c 0,0 6.156,-35.746 22.485,-40.832 16.464,-5.089 8.167,4.149 1.07,12.317 -7.227,8.164 -2.004,12.183 -1.07,23.43 1.07,11.246 -22.485,5.085 -22.485,5.085 z"
             style="fill:none;stroke:#231f20;stroke-opacity:1;stroke-width:0.9;stroke-linecap:butt;stroke-linejoin:miter;stroke-miterlimit:4;stroke-dasharray:none"
             id="path4615" /><path
             d="m 262.469,404.445 c 0,0 3.347,-25.972 12.582,-29.59 9.101,-3.746 4.551,2.946 0.535,8.836 -4.016,6.028 -1.203,8.973 -0.535,17.004 0.535,8.301 -12.582,3.75 -12.582,3.75"
             style="fill:#efebf7;fill-opacity:1;fill-rule:nonzero;stroke:none"
             id="path4617" /><path
             d="m 135.582,564.969 c 0,0 14.32,20.754 26.637,16.601 12.179,-4.148 44.972,19.414 55.144,13.922 10.305,-5.621 38.95,-36.012 17.399,-31.859 -21.414,4.148 -49.121,15.125 -62.371,4.148 -24.094,-20.75 -50.594,-15.261 -36.809,-2.812"
             style="fill:#aa9f92;fill-opacity:1;fill-rule:nonzero;stroke:none"
             id="path4619" /><path
             d="m 135.582,564.969 c 0,0 14.32,20.754 26.637,16.601 12.179,-4.148 44.972,19.414 55.144,13.922 10.305,-5.621 38.95,-36.012 17.399,-31.859 -21.414,4.148 -49.121,15.125 -62.371,4.148 -24.094,-20.75 -50.594,-15.261 -36.809,-2.812 z"
             style="fill:none;stroke:#231f20;stroke-opacity:1;stroke-width:0.9;stroke-linecap:butt;stroke-linejoin:miter;stroke-miterlimit:4;stroke-dasharray:none"
             id="path4621" /><path
             d="m 244.934,543.684 c 0,0 -65.45,-8.301 -75.621,-23.567 -10.309,-15.394 -42.028,-38.957 -36.942,-55.293 5.219,-16.332 7.227,-56.363 15.391,-37.886 8.164,18.476 6.156,39.894 8.164,48.062 2.14,8.301 51.133,10.309 57.289,24.637 6.156,14.324 34.801,5.086 35.871,13.254 1.07,8.164 -4.152,30.793 -4.152,30.793"
             style="fill:#aa9f92;fill-opacity:1;fill-rule:nonzero;stroke:none"
             id="path4623" /><path
             d="m 244.934,543.684 c 0,0 -65.45,-8.301 -75.621,-23.567 -10.309,-15.394 -42.028,-38.957 -36.942,-55.293 5.219,-16.332 7.227,-56.363 15.391,-37.886 8.164,18.476 6.156,39.894 8.164,48.062 2.14,8.301 51.133,10.309 57.289,24.637 6.156,14.324 34.801,5.086 35.871,13.254 1.07,8.164 -4.152,30.793 -4.152,30.793 z"
             style="fill:none;stroke:#231f20;stroke-opacity:1;stroke-width:0.9;stroke-linecap:butt;stroke-linejoin:miter;stroke-miterlimit:4;stroke-dasharray:none"
             id="path4625" /><path
             d="m 263.406,485.309 c 0,0 -55.277,0.937 -55.277,-24.633 0,-25.571 -18.34,-35.746 -9.238,-46.055 9.238,-10.176 30.785,1.07 30.785,16.465 0,15.266 3.078,23.43 16.328,29.59 13.254,6.156 31.723,6.156 34.805,14.324 3.074,8.301 -19.411,11.246 -17.403,10.309"
             style="fill:#aa9f92;fill-opacity:1;fill-rule:nonzero;stroke:none"
             id="path4627" /><path
             d="m 263.406,485.309 c 0,0 -55.277,0.937 -55.277,-24.633 0,-25.571 -18.34,-35.746 -9.238,-46.055 9.238,-10.176 30.785,1.07 30.785,16.465 0,15.266 3.078,23.43 16.328,29.59 13.254,6.156 31.723,6.156 34.805,14.324 3.074,8.301 -19.411,11.246 -17.403,10.309 z"
             style="fill:none;stroke:#231f20;stroke-opacity:1;stroke-width:0.9;stroke-linecap:butt;stroke-linejoin:miter;stroke-miterlimit:4;stroke-dasharray:none"
             id="path4629" /><path
             d="m 338.094,472.992 c 0,0 -51.129,-7.097 -58.36,-22.492 -7.093,-15.395 -24.492,-44.984 -7.093,-36.816 17.402,8.164 29.582,24.5 34.8,32.668 5.086,8.164 42.965,2.14 53.137,16.464 10.309,14.329 -22.484,10.176 -22.484,10.176"
             style="fill:#aa9f92;fill-opacity:1;fill-rule:nonzero;stroke:none"
             id="path4631" /><path
             d="m 338.094,472.992 c 0,0 -51.129,-7.097 -58.36,-22.492 -7.093,-15.395 -24.492,-44.984 -7.093,-36.816 17.402,8.164 29.582,24.5 34.8,32.668 5.086,8.164 42.965,2.14 53.137,16.464 10.309,14.329 -22.484,10.176 -22.484,10.176 z"
             style="fill:none;stroke:#231f20;stroke-opacity:1;stroke-width:0.9;stroke-linecap:butt;stroke-linejoin:miter;stroke-miterlimit:4;stroke-dasharray:none"
             id="path4633" /><path
             d="m 263.406,581.438 c 0,0 -4.148,-61.321 10.172,-72.567 14.32,-11.246 27.707,-31.726 42.027,-21.555 14.325,10.309 28.645,40.969 9.239,55.293 -19.543,14.329 -24.629,23.567 -21.551,44.989 3.078,26.507 -39.887,-0.137 -39.887,-6.16"
             style="fill:#aa9f92;fill-opacity:1;fill-rule:nonzero;stroke:none"
             id="path4635" /><path
             d="m 263.406,581.438 c 0,0 -4.148,-61.321 10.172,-72.567 14.32,-11.246 27.707,-31.726 42.027,-21.555 14.325,10.309 28.645,40.969 9.239,55.293 -19.543,14.329 -24.629,23.567 -21.551,44.989 3.078,26.507 -39.887,-0.137 -39.887,-6.16 z"
             style="fill:none;stroke:#231f20;stroke-opacity:1;stroke-width:0.9;stroke-linecap:butt;stroke-linejoin:miter;stroke-miterlimit:4;stroke-dasharray:none"
             id="path4637" /><path
             d="m 467.926,130.254 c 0,0 -158.879,32.934 -184.043,14.191 -25.028,-18.609 -29.848,-16.734 -27.035,-21.285 2.812,-4.687 56.617,3.211 66.386,-4.82 9.907,-7.902 -63.039,10.441 -82.984,-19.0119 -20.078,-29.3203 60.5,-5.8906 90.215,-7.0976 C 360.043,91.0273 244.398,76.3008 240.25,68.5352 231.82,52.7383 244,48.9883 270.5,58.2266 c 27.172,9.5039 71.742,-5.4883 95.566,-3.8828 37.879,2.2773 89.946,26.1054 165.973,2.2773 75.891,-23.6992 75.891,4.8164 73.481,21.418 -2.274,16.6015 -137.594,52.2149 -137.594,52.2149"
             style="fill:#967e71;fill-opacity:1;fill-rule:nonzero;stroke:none"
             id="path4639" /><path
             d="m 467.926,130.254 c 0,0 -158.879,32.934 -184.043,14.191 -25.028,-18.609 -29.848,-16.734 -27.035,-21.285 2.812,-4.687 56.617,3.211 66.386,-4.82 9.907,-7.902 -63.039,10.441 -82.984,-19.0119 -20.078,-29.3203 60.5,-5.8906 90.215,-7.0976 C 360.043,91.0273 244.398,76.3008 240.25,68.5352 231.82,52.7383 244,48.9883 270.5,58.2266 c 27.172,9.5039 71.742,-5.4883 95.566,-3.8828 37.879,2.2773 89.946,26.1054 165.973,2.2773 75.891,-23.6992 75.891,4.8164 73.481,21.418 -2.274,16.6015 -137.594,52.2149 -137.594,52.2149 z"
             style="fill:none;stroke:#231f20;stroke-opacity:1;stroke-width:0.9;stroke-linecap:butt;stroke-linejoin:miter;stroke-miterlimit:4;stroke-dasharray:none"
             id="path4641" /><path
             d="m 463.641,127.711 c 0,0 -149.371,32.531 -172.797,15.262 -23.422,-17.407 -28.106,-14.86 -25.965,-18.34 2.141,-3.485 53.406,1.605 63.711,-5.758 10.305,-7.23 -62.106,6.961 -80.309,-17.539 -18.07,-24.5001 50.328,-2.8126 85.395,-5.7579 35.07,-2.9453 -75.891,-18.7422 -82.985,-24.9023 -9.769,-12.1836 3.614,-17.6719 28.641,-9.3711 27.844,9.2383 69.602,-0.1328 95.836,1.6055 36.941,2.5429 84.457,20.082 149.105,0.4023 71.879,-21.5547 71.879,4.2852 69.602,19.4141 -2.273,14.9961 -130.234,44.9844 -130.234,44.9844"
             style="fill:#a79185;fill-opacity:1;fill-rule:nonzero;stroke:none"
             id="path4643" /><path
             d="m 459.359,125.031 c 0,0 -139.738,32.403 -161.554,16.336 -21.817,-16.066 -26.235,-12.988 -24.895,-15.265 1.473,-2.407 50.192,0.136 61.035,-6.692 10.707,-6.695 -61.304,3.481 -77.5,-16.066 -16.195,-19.5471 39.887,0.402 80.309,-4.4182 40.555,-4.8203 -65.449,-21.5547 -75.625,-26.1055 -11.106,-8.4375 3.48,-15.9336 27.039,-8.4375 28.508,8.9727 67.594,5.0899 96.234,7.2305 35.739,2.6758 78.703,14.0586 132.11,-1.6055 67.726,-19.2812 67.726,3.8828 65.586,17.2695 -2.145,13.5237 -122.739,37.7537 -122.739,37.7537"
             style="fill:#b9a69a;fill-opacity:1;fill-rule:nonzero;stroke:none"
             id="path4645" /><path
             d="m 455.074,122.488 c 0,0 -130.097,31.996 -150.308,17.27 -20.211,-14.59 -24.496,-11.11 -23.825,-12.18 0.801,-1.207 46.981,-1.476 58.223,-7.633 11.242,-6.023 -60.363,0 -74.687,-14.593 -14.188,-14.727 29.714,3.48 75.488,-3.079 45.91,-6.5621 -55.277,-24.3667 -68.262,-27.3121 -12.578,-4.8203 3.215,-14.0586 25.301,-7.3632 29.176,8.5664 65.449,10.1757 96.637,12.7187 34.531,2.8125 73.078,8.0313 115.109,-3.6172 63.578,-17.1367 63.578,3.3477 61.566,15.2656 -1.871,12.0472 -115.242,30.5232 -115.242,30.5232"
             style="fill:#cbbaaf;fill-opacity:1;fill-rule:nonzero;stroke:none"
             id="path4647" /><path
             d="m 450.926,119.813 c 0,0 -120.731,31.863 -139.336,18.476 -18.469,-13.391 -22.485,-9.375 -22.485,-9.375 0,0 43.633,-2.812 55.411,-8.301 11.781,-5.621 -59.559,-3.48 -71.875,-13.254 -12.313,-9.9059 19.273,6.563 70.539,-1.738 51.398,-8.4374 -44.973,-27.1796 -61.035,-28.5194 -13.918,-1.2032 3.078,-12.3164 23.691,-6.4258 59.828,16.7344 133.578,27.9805 195.148,12.5859 59.563,-14.8594 59.563,2.9453 57.688,13.3867 -1.871,10.4456 -107.746,23.1646 -107.746,23.1646"
             style="fill:#ddcfc6;fill-opacity:1;fill-rule:nonzero;stroke:none"
             id="path4649" /><path
             d="m 280.539,142.305 c 0,0 -41.894,2.543 -58.758,-18.211 -16.867,-20.883 -3.883,-9.504 5.086,-6.024 8.969,3.481 19.274,14.461 37.207,10.176 17.805,-4.285 16.465,14.059 16.465,14.059"
             style="fill:#adacb6;fill-opacity:1;fill-rule:nonzero;stroke:none"
             id="path4651" /><path
             d="m 280.539,142.305 c 0,0 -41.894,2.543 -58.758,-18.211 -16.867,-20.883 -3.883,-9.504 5.086,-6.024 8.969,3.481 19.274,14.461 37.207,10.176 17.805,-4.285 16.465,14.059 16.465,14.059 z"
             style="fill:none;stroke:#231f20;stroke-opacity:1;stroke-width:0.9;stroke-linecap:butt;stroke-linejoin:miter;stroke-miterlimit:4;stroke-dasharray:none"
             id="path4653" /><path
             d="m 270.77,139.625 c 0,0 -30.387,1.207 -42.7,-12.449 -12.445,-13.656 -2.945,-6.16 3.614,-3.75 6.558,2.277 14.054,9.508 27.039,6.961 12.98,-2.543 12.047,9.238 12.047,9.238"
             style="fill:#efebf7;fill-opacity:1;fill-rule:nonzero;stroke:none"
             id="path4655" /><path
             d="m 252.297,103.344 c 0,0 -53.004,-2.141 -57.02,-13.5237 -4.148,-11.2461 4.016,-8.168 13.653,-3.7461 9.504,4.2813 13.652,8.1641 30.652,1.4727 17.133,-6.5625 12.715,15.7971 12.715,15.7971"
             style="fill:#adacb6;fill-opacity:1;fill-rule:nonzero;stroke:none"
             id="path4657" /><path
             d="m 252.297,103.344 c 0,0 -53.004,-2.141 -57.02,-13.5237 -4.148,-11.2461 4.016,-8.168 13.653,-3.7461 9.504,4.2813 13.652,8.1641 30.652,1.4727 17.133,-6.5625 12.715,15.7971 12.715,15.7971 z"
             style="fill:none;stroke:#231f20;stroke-opacity:1;stroke-width:0.9;stroke-linecap:butt;stroke-linejoin:miter;stroke-miterlimit:4;stroke-dasharray:none"
             id="path4659" /><path
             d="m 246.941,101.336 c 0,0 -38.414,-1.4727 -40.82,-7.2305 -2.277,-5.8907 3.477,-4.2852 10.172,-1.875 6.691,2.2773 9.504,4.2851 22.352,0.9375 12.847,-3.3477 8.296,8.168 8.296,8.168"
             style="fill:#efebf7;fill-opacity:1;fill-rule:nonzero;stroke:none"
             id="path4661" /><path
             d="m 249.754,76.6992 c 0,0 -34.399,-11.5117 -38.145,-24.2304 -3.75,-12.8516 4.551,-5.086 12.043,1.6054 7.364,6.8281 11.782,3.8828 22.754,5.3555 11.11,1.4726 3.348,17.2695 3.348,17.2695"
             style="fill:#adacb6;fill-opacity:1;fill-rule:nonzero;stroke:none"
             id="path4663" /><path
             d="m 249.754,76.6992 c 0,0 -34.399,-11.5117 -38.145,-24.2304 -3.75,-12.8516 4.551,-5.086 12.043,1.6054 7.364,6.8281 11.782,3.8828 22.754,5.3555 11.11,1.4726 3.348,17.2695 3.348,17.2695 z"
             style="fill:none;stroke:#231f20;stroke-opacity:1;stroke-width:0.9;stroke-linecap:butt;stroke-linejoin:miter;stroke-miterlimit:4;stroke-dasharray:none"
             id="path4665" /><path
             d="m 246.941,74.5586 c 0,0 -25.027,-7.6289 -27.972,-14.8594 -2.946,-7.3633 3.215,-2.8125 8.699,1.336 5.488,4.0195 8.566,2.5468 16.598,3.75 8.031,1.2031 2.675,9.7734 2.675,9.7734"
             style="fill:#efebf7;fill-opacity:1;fill-rule:nonzero;stroke:none"
             id="path4667" /><path
             d="m 49.6523,787.348 c 4.9532,-1.606 8.4336,-4.285 7.7618,-5.758 -0.668,-1.473 -5.2188,-1.34 -10.1719,0.269 -4.9531,1.606 -8.4336,4.149 -7.7617,5.758 0.6679,1.473 5.2187,1.336 10.1718,-0.269"
             style="fill:#ffffff;fill-opacity:1;fill-rule:nonzero;stroke:none"
             id="path4669" /><path
             d="m 515.84,383.828 c 0,0 -71.473,19.41 -93.422,9.102 -21.953,-10.309 -51.801,-48.465 -40.957,-118.485 10.84,-70.019 4.551,52.481 34.129,86.621 29.582,34.141 100.25,22.762 100.25,22.762"
             style="fill:#231f20;fill-opacity:1;fill-rule:nonzero;stroke:none"
             id="path4671" /><path
             d="m 515.84,383.828 c 0,0 -71.473,19.41 -93.422,9.102 -21.953,-10.309 -51.801,-48.465 -40.957,-118.485 10.84,-70.019 4.551,52.481 34.129,86.621 29.582,34.141 100.25,22.762 100.25,22.762 z"
             style="fill:none;stroke:#231f20;stroke-opacity:1;stroke-width:0.9;stroke-linecap:butt;stroke-linejoin:miter;stroke-miterlimit:4;stroke-dasharray:none"
             id="path4673" /></g></g></g></g></svg>